<?xml version="1.0" encoding="utf-8"?>
<!-- Generator: Adobe Illustrator 18.1.1, SVG Export Plug-In . SVG Version: 6.00 Build 0)  -->
<svg version="1.1" id="Layer_1" xmlns="http://www.w3.org/2000/svg" xmlns:xlink="http://www.w3.org/1999/xlink" x="0px" y="0px"
	 viewBox="0 0 81 71" enable-background="new 0 0 81 71" xml:space="preserve">
<path fill="#92CB31" d="M63.9,14.3c-1.1,0-2.1,0.1-3.1,0.3C58,6.4,50.2,0.5,41,0.5c-8.8,0-16.4,5.4-19.5,13.1
	C20,13.2,18.6,13,17.1,13C7.8,13,0.3,20.6,0.3,29.9c0,9.3,7.5,16.8,16.8,16.8c1.2,0,2.5-0.1,3.6-0.4v24.3h40.5V47.7
	c0.9,0.1,1.8,0.2,2.7,0.2c9.3,0,16.8-7.5,16.8-16.8C80.7,21.8,73.2,14.3,63.9,14.3z"/>
</svg>
