<?xml version="1.0" encoding="utf-8"?>
<!-- Generator: Adobe Illustrator 18.1.1, SVG Export Plug-In . SVG Version: 6.00 Build 0)  -->
<svg version="1.1" id="Layer_1" xmlns="http://www.w3.org/2000/svg" xmlns:xlink="http://www.w3.org/1999/xlink" x="0px" y="0px"
	 viewBox="0 0 250 123" enable-background="new 0 0 250 123" xml:space="preserve">
<g>
	<path fill-rule="evenodd" clip-rule="evenodd" fill="#3E1306" d="M125.6,0.3c64.5,0,117.4,49.9,122,113.2H3.6
		C8.2,50.2,61.1,0.3,125.6,0.3z"/>
	<path fill-rule="evenodd" clip-rule="evenodd" fill="#996735" d="M108.2,78.8h6.7v16.1h-6.7V78.8L108.2,78.8z M103.1,92.1H84.2
		v21.4H73.3V92.1V78.8h29.8V92.1L103.1,92.1z M223.5,113.6H237V78.8h-13.5V113.6L223.5,113.6z M220.9,113.6V78.8l-5.8-3.7l-5.8,3.7
		v34.8H220.9L220.9,113.6z M211.5,107.3v-7.1h7.1v7.1H211.5L211.5,107.3z M182.8,92.1h7.1V85h-7.1V92.1L182.8,92.1z M182.8,107.3
		h7.1v-7.1h-7.1V107.3L182.8,107.3z M197.2,107.3h7.1v-7.1h-7.1V107.3L197.2,107.3z M197.2,92.1h7.1V85h-7.1V92.1L197.2,92.1z
		 M211.5,92.1V85h7.1v7.1H211.5L211.5,92.1z M186.3,75.1l5.8,3.7v34.8h-11.7V78.8L186.3,75.1L186.3,75.1z M200.7,75.1l5.8,3.7v34.8
		h-11.7V78.8L200.7,75.1L200.7,75.1z M148.2,92.1h18.9v21.4h10.9V92.1V78.8h-29.8V92.1L148.2,92.1z M27.8,113.6H14.3V78.8h13.5
		V113.6L27.8,113.6z M30.3,113.6V78.8l5.8-3.7l5.8,3.7v34.8H30.3L30.3,113.6z M39.7,107.3v-7.1h-7.1v7.1H39.7L39.7,107.3z
		 M68.5,92.1h-7.1V85h7.1V92.1L68.5,92.1z M68.5,107.3h-7.1v-7.1h7.1V107.3L68.5,107.3z M54.1,107.3H47v-7.1h7.1V107.3L54.1,107.3z
		 M54.1,92.1H47V85h7.1V92.1L54.1,92.1z M39.7,92.1V85h-7.1v7.1H39.7L39.7,92.1z M64.9,75.1l-5.8,3.7v34.8h11.7V78.8L64.9,75.1
		L64.9,75.1z M50.5,75.1l-5.8,3.7v34.8h11.7V78.8L50.5,75.1L50.5,75.1z M143,78.8h-6.7v16.1h6.7V78.8L143,78.8z M164.4,94.8h-2.7
		h-16.1V73.4h-9.4l0,0l-10.7-5.3l-10.7,5.3l0,0h-9.4v21.4H89.5h-2.7v2.7v16.1h2.7V97.5h16.1v16.1h2.7V97.5h6.7v16.1h2.7V97.5h8h8
		v16.1h2.7V97.5h6.7v16.1h2.7V97.5h16.1v16.1h2.7V97.5V94.8L164.4,94.8z M125.6,73.4c4.4,0,8,2.4,8,5.3l0,0v16.1h-8h-8V78.8l0,0
		C117.6,75.8,121.2,73.4,125.6,73.4z"/>
	<path fill-rule="evenodd" clip-rule="evenodd" fill="#FFFFFF" d="M58.6,36.7c-1.9,0.2-3.4,0.7-4.3,1.6c-0.3,0-0.7-0.1-1-0.3
		c-0.3-0.2-0.5-0.4-0.5-0.6v-0.2l0.5-0.8l0.6-0.9l-0.2-0.7c-0.1-0.4-0.2-0.7-0.3-0.8l2.6-1l5.7-1.7l3.3-0.8l3.7-0.7
		c1.2-0.2,2.5-0.4,3.6-0.5c1.2-0.1,2.2-0.2,3.2-0.2h0.6h0.4c2.4,0.2,4,1.4,4.7,3.7c0,0.2,0.3,0.5,0.8,0.8c0.5,0.4,0.8,0.8,1,1.4
		l0.2,0.9c0,0.3,0,0.6,0,0.9c-0.1,0.3-0.2,0.5-0.2,0.7c-0.5,1.5-1.4,2.8-2.8,3.8c-1.4,1-2.7,1.7-3.9,2.1L75,43.8L74,44.1
		c2.3,0.5,3.9,1.3,4.8,2.4c0.6,0.7,0.8,1.5,0.8,2.4c0,0.6-0.1,1.2-0.3,1.9c-0.5,1.4-1.2,2.7-2.3,3.9l-1.7,1.6
		c-0.2,0.2-0.5,0.4-0.9,0.7c-0.3,0.2-0.7,0.4-1,0.7l-2.1,1.1c-0.7,0.3-1.5,0.6-2.4,0.8c-1.8,0.4-3.4,0.7-4.9,0.7
		c-1.7,0-3.3-0.3-4.8-0.9c-0.8,1.1-2,1.6-3.8,1.6c-2.3,0-3.4-0.5-3.4-1.6l0.3-0.6l8.5-22.5L58.6,36.7L58.6,36.7z M62.1,47.5
		l-2.7,8.1c0.5,0.3,1.1,0.5,1.7,0.6l2.2,0.3c1.2,0,2.6-0.3,4.1-1c1.3-0.7,2.5-1.5,3.6-2.5l1.2-1.6c0.3-0.5,0.6-1,0.8-1.6v-0.5
		c0-0.8-0.4-1.4-1.2-1.8c-1-0.5-2.3-0.7-4-0.7c-1.4,0-2.6,0.1-3.7,0.3C63,47.2,62.3,47.4,62.1,47.5L62.1,47.5z M66,34.8l2,1.6
		c-0.8,0.7-1.4,1.4-1.9,2.1c-0.6,0.8-1.1,1.7-1.5,2.6l-0.3,1.6l2.6-0.4l2.2-0.6l2.2-0.7c1.7-0.5,3.1-1.2,4.4-2.1
		c1.3-0.9,2.1-1.8,2.4-2.9l0.3-1.4c0-0.4-0.4-0.6-1.2-0.8c-0.7-0.2-1.7-0.3-2.8-0.3c-1.4,0-2.6,0.1-3.4,0.3L66,34.8L66,34.8z
		 M86,47.1c-0.2,0.2-0.3,0.4-0.5,0.6c-0.2,0.2-0.3,0.6-0.5,1L84,50.6c-0.3,0.6-0.6,1.1-1.1,1.6c-0.6,0.6-1.3,1.6-2.1,3.1l-0.1,0.3
		c0,0.2,0.1,0.4,0.3,0.4l0.3-0.1l0.4-0.2l1.9-1.2l0.9-0.8l1.2-1.2l0.9-1c0-0.1,0.2-0.3,0.4-0.6c0.2-0.4,0.4-0.7,0.7-1.1
		c0.4-0.8,0.9-1.5,1.3-2c0.5-0.5,1.1-0.8,1.9-0.8c0.5,0,0.8,0.1,1,0.3l-0.8,1.1l-1.6,2.6L89.1,52l-0.6,1.3l-0.4,0.9
		c-0.3,0.9-0.4,1.6-0.4,2.3l0.1,0.5c0,0.8,0.4,1.6,1.1,2.2c0.7,0.6,1.7,0.9,2.9,0.9c0.8,0,1.6-0.2,2.6-0.5c1-0.4,2-0.8,2.9-1.3
		l2-1.2l1.8-1.3l0.4-0.3l0.4-0.3l0.2-0.3l0.7-2.2l0.1-0.4l-0.2-0.2l-0.5,0.2l-1.5,1.1c-0.9,0.7-1.8,1.2-2.7,1.7
		c-0.9,0.5-1.7,0.7-2.4,0.7c-0.7,0-1.1-0.4-1.1-1.1c0-0.4,0.1-0.9,0.3-1.7c0.2-0.7,1.5-3.1,3.7-7c0.3-0.4,0.8-0.8,1.4-1.3
		c0.6-0.5,1-0.8,1-1.1l0.1-0.2c0-0.2-0.1-0.3-0.3-0.4c-0.3-0.1-0.7-0.2-0.9-0.2l-0.5,0L99,42.6l-0.4-0.1l-0.8-0.9
		c-0.4-0.2-0.7-0.3-1.1-0.3c-0.2,0-0.5,0.1-0.8,0.2L95,42.2L94,42.9c-0.3,0.2-0.7,0.2-1,0.3c-1.2,0-1.8-0.2-1.8-0.6l0.2-0.3l1.7-2.1
		l0.1-0.2l0.1-0.2c0-0.3-0.3-0.5-0.8-0.7c-0.5-0.1-1.1-0.2-1.8-0.2c-1.4,0.1-2.2,0.4-2.5,1c-0.3,0.5-0.6,0.8-0.6,0.9
		c-0.1,0.1-0.2,0.4-0.4,0.8l-0.8,2.1c-0.1,0.3-0.2,0.6-0.3,0.9C86,44.9,86,45.1,86,45.4l-0.1,0.8L86,47.1L86,47.1z M118.2,40.3
		c0.3,0,0.7,0.4,1.1,1.1c0.4,0.7,0.7,1.6,0.9,2.8l0.2,1.3l-0.1,1l-0.4,1.2l-0.5,1.3l-0.6,1.3l-1.4,2.4l-0.6,1
		c0.1,0.2,0.2,0.4,0.4,0.5l1.2,0.2c0.8,0,2.2-0.7,4-2.2l0.3-0.2c0.2,0.1,0.3,0.2,0.3,0.2l-0.1,0.4l-0.2,0.3l-0.2,0.8l-0.3,0.8
		c-0.2,0.6-0.9,1.1-2,1.5c-1.1,0.4-2.1,0.6-3.1,0.6c-0.6,0-1-0.1-1.4-0.3c-0.5-0.1-0.8-0.3-1-0.4c-0.2,0.3-0.7,0.8-1.5,1.4l-1.1,0.8
		l-1.7,0.9c-1.2,0.6-2.5,0.9-3.9,0.9c-2.4,0-3.9-0.7-4.5-2c-0.3-0.6-0.5-1.4-0.5-2.3c0-0.9,0.2-1.8,0.5-2.7c0.1-0.5,0.3-0.9,0.4-1.2
		c0.1-0.3,0.4-0.8,0.7-1.4l0.6-1l0.8-1.3l1.8-2.7l1.8-2.4l0.3-0.7c0.3-0.5,0.5-0.9,0.8-1.1c0.2-0.2,0.5-0.3,0.9-0.3l0.7,0l0.6,0h3.6
		c0.3,0,0.9-0.1,1.9-0.4L118.2,40.3L118.2,40.3z M108.9,52l-0.5,1.1c-0.3,0.9-0.5,1.8-0.5,2.5v0.7c0.1,0.7,0.5,1.1,1.2,1.1
		c0.6,0,1.4-0.4,2.3-1.3c0.9-0.8,1.4-1.3,1.5-1.5l-0.2-0.6l-0.3-1l-0.2-1.9l0.1-1.1l0.2-1.5l0.3-1.4l0.7-2.3l-0.5,0.4l-1.1,1.1
		l-0.5,0.7l-0.8,1.3c-0.2,0.3-0.4,0.6-0.5,0.9c-0.2,0.3-0.4,0.6-0.5,0.9L108.9,52L108.9,52z M116,49.8c0.1-0.1,0.2-0.2,0.2-0.2
		c0.2-0.2,0.3-0.5,0.4-0.8l0.3-0.8l0.3-1.6l-0.1-0.1l-0.4-0.1c-0.3,0-0.5,0.4-0.8,1.1c-0.2,0.7-0.3,1.3-0.3,1.6l0.1,0.4l0.2,0.5
		L116,49.8L116,49.8z M128.3,41l-0.8,0.1l-1,0.1l-0.8,3.2l-0.5,1.6l-1.6,3.8c-0.3,0.7-0.6,1.2-0.8,1.7c-0.2,0.5-0.4,0.8-0.5,1
		l-0.5,1.3l-0.3,1c-0.3,1-0.5,1.8-0.5,2.6c0,0.7,0.1,1.2,0.4,1.7c0.5,1,1.4,1.6,2.8,1.7c0.9,0,1.8-0.2,2.7-0.5
		c0.9-0.4,1.6-0.7,2.2-1.1l1-0.8l0.9-0.8l1.5-1.3l0.2,1.6c0,0.6,0.3,1.1,0.9,1.6s1.5,0.7,2.9,0.7c1,0,2.1-0.3,3-0.8
		c1-0.5,1.9-1.2,2.6-1.9l1.6-1.5l1,0.6l1,0.5c0.4,0.2,0.7,0.2,1,0.2c0.3,0,0.8-0.1,1.5-0.3l1.5-0.7l1.3-0.6l0.7-0.4l0.7-0.4l0.3-0.3
		l0.2-1.1l0.4-1.1l0.1-0.3c0-0.1-0.1-0.2-0.3-0.3c-0.3,0-0.6,0.1-0.9,0.4l-1.6,1.2l-1.6,1c-0.2,0.1-0.5,0.2-0.7,0.3
		c-0.2,0.1-0.5,0.1-0.7,0.1h-0.3c-0.7-0.1-1.1-0.2-1.2-0.3c-0.3-0.2-0.5-0.3-0.4-0.6l0.5-1.3l0.7-1l0.7-0.8l1.4-2l1.3-2.4
		c0.9-1.7,1.5-2.9,1.8-3.6l0.1-0.3c0-0.3-0.2-0.6-0.5-1c-0.5-0.5-1.1-0.8-1.7-0.8c-0.6,0-1.1,0.1-1.6,0.3c-0.4,0.3-0.7,0.5-0.9,0.8
		c-0.2,0.3-0.3,0.4-0.3,0.5c-0.1,0.2-0.3,0.5-0.4,0.8l-0.5,1.1c-0.2,0.5-0.5,1-1,1.7l-0.6,1l-0.4,0.8l-0.8,3.6l-0.7,1.9
		c-0.5,0.9-1,1.7-1.6,2.3c-0.6,0.7-1.3,1-2,1c-0.8-0.1-1.1-0.3-1.1-0.8l-0.1-0.7l0.1-0.4l0.4-1.5c0.5-1.3,1.2-2.8,2.2-4.7l1.2-2.3
		c0.1-0.2,0.2-0.5,0.5-0.8c0.5-0.4,0.7-0.6,0.8-0.8v-0.3c0-0.4-0.3-0.8-1-1.1c-0.8-0.5-1.5-0.8-2.2-0.8h-0.4l-2.7,0.8
		c-0.4,0.2-0.8,0.4-1.1,0.7l-0.2,0.3V45v0.6l-0.5,1.2l-0.7,1.4l-1.5,2.9l-1.3,2.7l-0.6,0.9l-0.7,0.7l-0.7,0.6
		c-0.5,0.4-1.1,0.6-1.8,0.6c-0.3,0-0.5-0.2-0.6-0.7l-0.2-0.8V55l0.2-0.7l0.5-1l1.2-1.8l0.8-1.7l1.2-2.4l0.5-1.3l0.7-1.8l0.9-0.8
		l0.3-0.3V43l-0.1-0.1c-0.1-0.4-0.3-1-0.8-1.6c-0.5-0.6-1.2-0.9-2.1-0.9c-0.4,0-0.8,0.1-1.1,0.3L128.3,41L128.3,41z M150,58
		l5.7-14.5l0.7-1.1c0.3-0.3,0.7-0.5,1.2-0.7h0.3c0.2,0,0.4,0.1,0.7,0.2l0.5,0.2c0.3,0,0.6-0.1,1-0.3c0.4-0.2,0.8-0.3,1-0.3l0.2,0
		l0.2,0c0.2,0.1,0.5,0.4,0.9,0.9c0.3,0.5,0.4,0.9,0.4,1l-0.8,1.1l-0.4,0.5L161,46l-1,1.9c-0.1,0.2-0.3,0.5-0.4,0.9
		c-0.2,0.4-0.3,0.7-0.4,1l-1.1,2.7c0.1,0,0.7-0.6,1.8-1.6c1.1-1,2.7-3,5-5.8c0.7-1,1.3-2,1.7-3.2c0.2-0.1,0.4-0.2,0.5-0.3
		c0.4-0.2,0.9-0.4,1.6-0.7c1-0.4,2-0.6,2.9-0.6c0.3,0.1,0.5,0.2,0.6,0.4l0.3,0.4l0.9,0.3l0.6,0.3l0.1,0.3l-0.1,0.3l-1.6,2l-1.4,2.1
		l-1.5,2.1c-0.9,1.4-1.6,2.6-1.9,3.6c-0.1,0.4-0.2,0.8-0.2,1.3l0.1,0.8c0.2,0.6,0.6,0.9,1.2,0.9c0.6-0.1,1.5-0.4,2.6-1.1l3-1.8
		l0.4-0.2c0.3,0,0.4,0.1,0.4,0.3l-0.1,0.2l-0.2,0.5l-0.5,1.3c-0.1,0.4-0.6,0.8-1.4,1.3l-1.9,1.1c-0.8,0.5-1.8,1.1-3,1.6
		c-1.2,0.5-2.3,0.8-3.4,0.8c-1.5,0-2.6-0.4-3.3-1.1c-0.5-0.4-0.7-1-0.7-1.6c0-0.3,0.1-0.7,0.2-1l1.4-4.1c-1.2,0.7-2.3,1.7-3.5,3
		c-1.1,1.3-2,2.6-2.7,3.9l-0.1,0.5l-0.1,0.7c-0.1,0.3-0.5,0.6-1.1,0.8c-0.6,0.3-1.2,0.4-1.7,0.4c-0.6,0-1.1-0.2-1.7-0.5
		c-0.3-0.1-0.5-0.3-0.7-0.5c-0.2-0.2-0.4-0.4-0.6-0.7c-0.2-0.3-0.3-0.5-0.3-0.8L150,58L150,58z M180.4,36.1c0.2-0.9,0.9-1.6,1.9-2.1
		c1-0.6,2.1-0.8,3.1-0.8c1,0,1.8,0.3,2.4,0.8c0.5,0.4,0.7,0.8,0.7,1.3l-0.2,0.7c-0.3,0.8-0.8,1.5-1.5,1.9l-1.2,0.7
		c-0.4,0.2-0.9,0.3-1.5,0.4c-1.4,0-2.4-0.3-3.1-0.9c-0.5-0.4-0.8-0.9-0.8-1.5L180.4,36.1L180.4,36.1z M183.6,44.7l1-0.2
		c0.1,0,0.3-0.3,0.7-0.8v-0.2c0-0.2-0.1-0.3-0.2-0.5c-0.2-0.3-0.5-0.5-0.7-0.6l-1-0.5l-1.1-0.5l-2.5,0.2c-1.3,0.2-2.2,0.4-2.6,0.6
		v0.2v0.7v0.3v0.5l-0.3,0.6l-0.3,0.5l-0.4,0.7l-0.5,0.8c-1.1,2-2,4-2.7,5.9c-0.4,1.1-0.6,1.9-0.7,2.2c-0.1,0.3-0.1,0.7-0.1,1.1
		l0.1,0.6l0.4,0.7l0.7,0.7l0.8,0.6c0.7,0.4,1.3,0.6,2,0.6c1.2,0,2.6-0.3,4-0.9c1.4-0.6,2.7-1.3,3.7-2.2c1.1-0.9,1.8-1.8,2.2-2.8
		l0.4-1.2l0.1-0.1l-0.3-0.2c-0.3,0-0.6,0.1-0.9,0.4l-1.3,1l-0.9,0.7l-1,0.7c-0.6,0.4-1.2,0.6-1.7,0.7c-0.8,0-1.1-0.4-1.1-1.1
		c0-0.3,0.1-0.7,0.3-1.3l2-3.8c0.6-1,1-1.8,1.3-2.5C183.2,45.8,183.4,45.2,183.6,44.7L183.6,44.7z M205.1,52.2l0.4-0.2l0.6-0.2
		l0.2,0.2l-0.1,0.2l-0.5,1.2l-0.4,1.1c0,0.2-0.5,0.6-1.2,1.1l-1.4,0.8l-1.8,1c-1.4,0.8-2.9,1.5-4.7,2.2c-1.8,0.7-3.4,1-4.9,1
		c-0.8,0-1.6-0.1-2.3-0.3c-0.7-0.2-1.3-0.5-1.7-0.8c-1-0.7-1.6-1.6-1.6-2.7l-0.1-0.7c0-1,0.2-2.1,0.6-3.3c0.4-1.2,0.7-1.9,0.9-2.3
		c0.2-0.4,0.4-1,0.9-1.8l0.6-1.4l1.8-2.9l1.9-2.7l3-0.4l1.5-0.3l1.6-0.4h1.4c1.2,0,2.3,0.3,3.1,0.8c0.4,0.2,0.7,0.5,1.1,0.9
		c0.3,0.4,0.6,0.7,0.7,1.1c0.1,0.4,0.2,0.8,0.2,1.3c0,0.4-0.1,0.9-0.3,1.5c-0.5,1.4-1.1,2.5-1.8,3.5c-0.7,1-1.6,1.7-2.7,2.3
		c-1,0.5-2.1,0.9-3,1.2c-1,0.3-2,0.4-3,0.4l-1.2-0.2l-0.6-0.1l-0.2,1.3l-0.1,0.5l0.1,0.7c0,0.3,0.3,0.5,0.7,0.8
		c0.5,0.2,1.1,0.3,1.9,0.3c1,0,2.2-0.3,3.6-0.8c0.6-0.2,1.3-0.5,1.9-0.8c0.6-0.3,1.3-0.7,2-1.1C203.3,53.5,204.3,52.8,205.1,52.2
		L205.1,52.2z M196.8,50.2c0.2-0.2,0.7-0.8,1.3-1.9c0.3-0.5,0.5-1,0.8-1.5c0.2-0.5,0.4-1,0.5-1.4c0.3-0.8,0.4-1.3,0.4-1.7
		c0-0.5-0.2-0.8-0.5-0.8c-0.6,0-1.3,0.6-2.2,1.7c-0.4,0.5-0.8,1.1-1.3,1.7c-0.4,0.6-0.8,1.2-1.1,1.8l-1.5,3l0.4,0.1h0.5
		C195.1,51.2,196,50.8,196.8,50.2z"/>
	<path fill-rule="evenodd" clip-rule="evenodd" fill="#3E1306" d="M125.6,122.7H14.3v-3.1c-4.7,0.2-11.8-2.3-11.8-3.9h123.2h123.2
		c0,1.6-7.1,4-11.8,3.9v3.1H125.6z"/>
	<path fill-rule="evenodd" clip-rule="evenodd" fill="#FFFFFF" d="M108.2,78.8h6.7v16.1h-6.7V78.8L108.2,78.8z M143,78.8h-6.7v16.1
		h6.7V78.8L143,78.8z M164.4,94.8h-18.7V73.4h-9.4l-10.7-5.3l-10.7,5.3h-9.4v21.4H86.8v18.7h2.7V97.5h16.1v16.1h2.7V97.5h6.7v16.1
		h2.7V97.5h16.1v16.1h2.7V97.5h6.7v16.1h2.7V97.5h16.1v16.1h2.7V94.8L164.4,94.8z M125.6,73.4c4.4,0,8,2.4,8,5.3v16.1h-16.1V78.8
		l0,0C117.6,75.8,121.2,73.4,125.6,73.4z"/>
</g>
</svg>
