<?xml version="1.0" encoding="utf-8"?>
<!-- Generator: Adobe Illustrator 18.1.1, SVG Export Plug-In . SVG Version: 6.00 Build 0)  -->
<svg version="1.1" id="Layer_1" xmlns="http://www.w3.org/2000/svg" xmlns:xlink="http://www.w3.org/1999/xlink" x="0px" y="0px"
	 viewBox="0 0 10 19" enable-background="new 0 0 10 19" xml:space="preserve">
<path fill="currentColor" d="M9.6,1c0.1,0,0.3,0.1,0.3,0.3c0,1.9-1.2,4.1-3,4.7c-1.1,0.4-2-0.8-2.8,0.3C3.2,7.5,3,9.4,2.7,10.8
	c-0.1,0.5-0.4,2.3,0.7,1.9c0.3-0.1,0.5-0.2,0.8-0.2c0.7,0.1,1.1,0.6,1.3,1.3c0.4,1.3,0,3.6-1.2,4.5c0,0,0,0.1,0,0.1
	c-1.6,1.2-3-1-3.6-2.3c-1.1-2.5-0.2-6,0.6-8.5C2.3,4.2,5.5-2.1,9.6,1z"/>
</svg>
