<?xml version="1.0" encoding="utf-8"?>
<!-- Generator: Adobe Illustrator 18.1.1, SVG Export Plug-In . SVG Version: 6.00 Build 0)  -->
<svg version="1.1" id="Layer_1" xmlns="http://www.w3.org/2000/svg" xmlns:xlink="http://www.w3.org/1999/xlink" x="0px" y="0px"
	 viewBox="0 0 91 70" enable-background="new 0 0 91 70" xml:space="preserve">
<g>
	<path fill="#92CB31" d="M1.2,54.2l6.5-39.6h74.6l7.5,38.3c0,0-7.8,0-13.9,0c-6.2,0-5.8-1.6-14.9,1c-9.1,2.6-17.4,2.3-23,0.6
		C32.7,53,25.2,52.8,20,54.7C14.9,56.7,1.2,54.2,1.2,54.2z"/>
	<rect x="8.7" y="52.8" fill="#92CB31" width="6.8" height="16.9"/>
	<rect x="74.2" y="52.8" fill="#92CB31" width="6.8" height="16.9"/>
	<path fill="#92CB31" d="M42.2,0.4h-3.5h-0.1H35c0,0-1.2,3.9-1,5.7c0.3,1.8,2.5,4.7,3.6,5.3l0.2,6.5l0.7,0.1v0l0.1,0l0.1,0v0
		l0.7-0.1l0.2-6.5c1.1-0.6,3.4-3.5,3.6-5.3C43.4,4.2,42.2,0.4,42.2,0.4z"/>
	<path fill="#92CB31" d="M53.4,0.4h-3.5h-0.1h-3.5c0,0-1.2,3.9-1,5.7c0.3,1.8,2.5,4.7,3.6,5.3l0.2,6.5l0.7,0.1v0l0.1,0l0.1,0v0
		l0.7-0.1l0.2-6.5c1.1-0.6,3.4-3.5,3.6-5.3C54.6,4.2,53.4,0.4,53.4,0.4z"/>
</g>
</svg>
