<svg xmlns="http://www.w3.org/2000/svg" viewBox="0 0 91 70"><g fill="#92CB31"><path d="M1.2 54.2l6.5-39.6h74.6l7.5 38.3H75.9c-6.2 0-5.8-1.6-14.9 1-9.1 2.6-17.4 2.3-23 .6-5.3-1.5-12.8-1.7-18 .2-5.1 2-18.8-.5-18.8-.5z"/><path d="M8.7 52.8h6.8v16.9H8.7zM74.2 52.8H81v16.9h-6.8zM42.2.4H35s-1.2 3.9-1 5.7c.3 1.8 2.5 4.7 3.6 5.3l.2 6.5.7.1h.2l.7-.1.2-6.5c1.1-.6 3.4-3.5 3.6-5.3.2-1.9-1-5.7-1-5.7zM53.4.4h-7.1s-1.2 3.9-1 5.7c.3 1.8 2.5 4.7 3.6 5.3l.2 6.5.7.1h.2l.7-.1.2-6.5c1.1-.6 3.4-3.5 3.6-5.3.1-1.9-1.1-5.7-1.1-5.7z"/></g></svg>